<?xml version="1.0" encoding="UTF-8" standalone="no"?>
<!-- Created with Inkscape (http://www.inkscape.org/) -->

<svg
   xmlns:dc="http://purl.org/dc/elements/1.1/"
   xmlns:cc="http://creativecommons.org/ns#"
   xmlns:rdf="http://www.w3.org/1999/02/22-rdf-syntax-ns#"
   xmlns:svg="http://www.w3.org/2000/svg"
   xmlns="http://www.w3.org/2000/svg"
   xmlns:sodipodi="http://sodipodi.sourceforge.net/DTD/sodipodi-0.dtd"
   xmlns:inkscape="http://www.inkscape.org/namespaces/inkscape"
   width="210mm"
   height="297mm"
   viewBox="0 0 744.09448819 1052.3622047"
   id="svg2"
   version="1.1"
   inkscape:version="0.91 r13725"
   sodipodi:docname="ikonki.svg">
  <defs
     id="defs4" />
  <sodipodi:namedview
     id="base"
     pagecolor="#ffffff"
     bordercolor="#666666"
     borderopacity="1.0"
     inkscape:pageopacity="0.0"
     inkscape:pageshadow="2"
     inkscape:zoom="1.979899"
     inkscape:cx="253.58525"
     inkscape:cy="717.7435"
     inkscape:document-units="px"
     inkscape:current-layer="layer1"
     showgrid="false"
     inkscape:window-width="1280"
     inkscape:window-height="961"
     inkscape:window-x="-8"
     inkscape:window-y="-8"
     inkscape:window-maximized="1" />
  <metadata
     id="metadata7">
    <rdf:RDF>
      <cc:Work
         rdf:about="">
        <dc:format>image/svg+xml</dc:format>
        <dc:type
           rdf:resource="http://purl.org/dc/dcmitype/StillImage" />
        <dc:title />
      </cc:Work>
    </rdf:RDF>
  </metadata>
  <g
     inkscape:label="Layer 1"
     inkscape:groupmode="layer"
     id="layer1">
    <rect
       style="fill:#ffffff;fill-opacity:1;stroke:#ffffff;stroke-width:0;stroke-linecap:round;stroke-miterlimit:4;stroke-dasharray:none;stroke-opacity:1"
       id="rect4170"
       width="84.285713"
       height="87.5"
       x="300.35715"
       y="218.07649"
       inkscape:export-filename="C:\Users\Mama1\Documents\KittenProject\KittenProject\Assets\Art\Sprites\RestartButton.png"
       inkscape:export-xdpi="179.83904"
       inkscape:export-ydpi="179.83904" />
    <circle
       style="fill:#7cb342;fill-opacity:1;stroke:none;stroke-width:0;stroke-linecap:round;stroke-miterlimit:4;stroke-dasharray:none;stroke-opacity:1"
       id="path4149"
       cx="164.1498"
       cy="265.45337"
       r="63.63961"
       inkscape:export-xdpi="181.01932"
       inkscape:export-ydpi="181.01932"
       inkscape:export-filename="C:\Users\Mama1\Documents\KittenProject\KittenProject\Assets\Art\Sprites\LeaderboardsButton.png" />
    <path
       style="fill:#ffffff;fill-opacity:1"
       d="m 117.06582,294.41638 c -0.94271,-0.38039 -1.25,-5.52339 -1.25,-20.92105 0,-26.1184 -1.25452,-24.41667 18,-24.41667 l 14,0 0,-7 c 0,-10.65104 0.57103,-11 18,-11 18.29428,0 18,-0.24523 18,15 l 0,11 14,0 c 18.94744,0 18,-1.07339 18,20.39301 0,14.02579 -0.22842,16.48066 -1.58179,17 -1.88937,0.72502 -95.36621,0.67183 -97.16821,-0.0553 z m 94.52673,-18.08772 -0.27673,-14.75 -15.5,-0.5 -15.5,-0.5 -0.5,-12.5 -0.5,-12.5 -13.5,0 -13.5,0 -0.5,8.5 -0.5,8.5 -15.5,0.5 -15.5,0.5 -0.27207,18.75 -0.27206,18.75 46.0488,0 46.0488,0 -0.27674,-14.75 z m -18.43165,5.20687 c -0.79432,-2.06994 0.39743,-3.11436 1.87159,-1.6402 0.65083,0.65083 1.76833,1.18333 2.48333,1.18333 1.92251,0 1.57825,-3.7429 -0.45,-4.89256 -1.64788,-0.93404 -1.6384,-1.0744 0.16248,-2.40508 1.1796,-0.87161 1.67064,-2.04337 1.28139,-3.05775 -0.78945,-2.05726 -2.69387,-2.15949 -2.69387,-0.14461 0,0.825 -0.675,1.5 -1.5,1.5 -1.9099,0 -1.94313,-2.38734 -0.055,-3.95432 3.55931,-2.95397 9.19447,1.09953 6.81823,4.9045 -0.76936,1.23193 -0.85929,2.18141 -0.24271,2.56248 1.36536,0.84383 1.22516,4.8417 -0.22048,6.28734 -1.72754,1.72754 -6.74902,1.49642 -7.45492,-0.34313 z m -63.34508,-7.95399 c 0,-0.82342 1.6244,-3.29514 3.60978,-5.49272 2.16368,-2.39493 3.37808,-4.59942 3.03139,-5.50288 -0.74286,-1.93585 -2.53795,-1.93984 -3.27954,-0.007 -0.70574,1.83911 -3.36163,1.99713 -3.36163,0.2 0,-3.54781 5.59609,-4.96106 8.42857,-2.12857 2.26389,2.26389 1.96036,3.91601 -1.42857,7.77579 -1.65,1.87924 -3,3.6949 -3,4.0348 0,0.33989 1.35,0.61798 3,0.61798 1.65,0 3,0.45 3,1 0,0.55 -2.25,1 -5,1 -3.7735,0 -5,-0.36724 -5,-1.49712 z m 35,-22.00288 c 0,-4.22222 -0.34848,-5.5 -1.5,-5.5 -2.06907,0 -1.87668,-1.23299 0.51143,-3.27776 3.43449,-2.9407 3.98857,-2.06861 3.98857,6.27776 0,6.44444 -0.29167,8 -1.5,8 -1.15152,0 -1.5,-1.27778 -1.5,-5.5 z"
       id="path4147"
       inkscape:connector-curvature="0"
       inkscape:export-xdpi="181.01932"
       inkscape:export-ydpi="181.01932"
       inkscape:export-filename="C:\Users\Mama1\Documents\KittenProject\KittenProject\Assets\Art\Sprites\LeaderboardsButton.png" />
    <path
       style="fill:#7cb342;fill-opacity:1"
       d="m 326.85862,324.17998 c -34.0776,-9.48219 -54.45493,-44.1826 -45.54125,-77.5518 4.65075,-17.41048 16.88714,-33.3048 31.32177,-40.68505 26.17188,-13.38135 55.67428,-9.04281 75.87509,11.158 25.20558,25.20556 25.20558,65.15329 0,90.35885 -16.22461,16.22462 -40.13398,22.70845 -61.65561,16.72 z m 34.14183,-29.12406 c 12.12734,-5.87075 21.39834,-23.67392 19.16251,-36.79791 -1.23023,-7.22123 -4.03115,-14.47036 -6.88601,-17.82175 -2.28281,-2.67985 -2.68917,-2.69606 -5.42908,-0.21646 -2.84737,2.57683 -2.83705,2.92434 0.26742,9.00961 12.42829,24.36145 -13.50898,50.24013 -37.88832,37.80272 -3.51234,-1.79187 -8.06547,-5.61642 -10.11807,-8.49902 -4.99027,-7.00818 -6.13413,-20.39505 -2.36542,-27.68293 l 2.78153,-5.37889 3.99061,3.74897 3.99062,3.74899 0,-10.99673 0,-10.99672 -10.99672,0 -10.99673,0 3.54612,3.77466 3.54612,3.77468 -3.53352,7.14187 c -4.24054,8.57087 -4.66243,22.84614 -0.93435,31.61526 8.30843,19.54296 31.67003,27.54903 51.86329,17.77365 z"
       id="path4168"
       inkscape:connector-curvature="0"
       inkscape:export-filename="C:\Users\Mama1\Documents\KittenProject\KittenProject\Assets\Art\Sprites\RestartButton.png"
       inkscape:export-xdpi="179.83904"
       inkscape:export-ydpi="179.83904" />
    <path
       style="fill:#000000"
       d=""
       id="path4162"
       inkscape:connector-curvature="0" />
    <circle
       inkscape:export-filename="C:\Users\Mama1\Documents\KittenProject\KittenProject\Assets\Art\Sprites\HomeButton.png"
       inkscape:export-ydpi="181.01932"
       inkscape:export-xdpi="181.01932"
       r="63.63961"
       cy="422.59622"
       cx="167.72122"
       id="circle4152"
       style="fill:#7cb342;fill-opacity:1;stroke:none;stroke-width:0;stroke-linecap:round;stroke-miterlimit:4;stroke-dasharray:none;stroke-opacity:1" />
    <path
       style="fill:#ffffff;fill-opacity:1"
       d="m 135.11588,462.88651 c -0.97472,-0.41231 -2.7691,-1.82103 -3.9875,-3.13049 -2.09574,-2.25236 -2.22968,-3.01066 -2.48229,-14.05314 l -0.26702,-11.67231 19.76883,-19.71611 19.76884,-19.71612 19.33682,19.35181 19.33681,19.35182 -0.29283,12.09075 -0.29284,12.09075 -2.89594,2.89437 -2.89594,2.89437 -31.66236,0.18198 c -17.4143,0.1001 -32.45986,-0.15536 -33.43458,-0.56768 z m 41.91301,-7.32346 c 1.47913,-1.47913 1.47913,-24.74973 0,-26.22886 -1.44832,-1.44832 -17.69166,-1.44832 -19.13998,0 -1.47913,1.47913 -1.47913,24.74973 0,26.22886 1.44832,1.44832 17.69166,1.44832 19.13998,0 z m -53.69828,-28.35553 c -0.58483,-0.58483 -1.06333,-1.68438 -1.06333,-2.44344 0,-1.77547 43.43843,-45.22929 45.21325,-45.22929 0.73577,0 5.7172,4.39535 11.06986,9.76744 l 9.7321,9.76742 0.44306,-9.52731 c 0.43876,-9.43494 0.46669,-9.53561 2.87986,-10.38155 1.5651,-0.54865 3.3085,-0.54797 4.8736,0.002 l 2.43681,0.85613 0.24167,15.08558 0.24169,15.08559 6.62567,6.58145 c 3.64412,3.6198 6.62568,7.2095 6.62568,7.9771 0,1.77914 -1.7287,3.52231 -3.49307,3.52231 -0.75152,0 -10.44113,-9.0683 -21.53248,-20.15178 l -20.16608,-20.15178 -20.16608,20.15178 c -11.09134,11.08348 -20.78096,20.15178 -21.53248,20.15178 -0.75151,0 -1.84489,-0.4785 -2.42973,-1.06333 z"
       id="path4150"
       inkscape:connector-curvature="0"
       inkscape:export-filename="C:\Users\Mama1\Documents\KittenProject\KittenProject\Assets\Art\Sprites\HomeButton.png"
       inkscape:export-xdpi="181"
       inkscape:export-ydpi="181" />
    <circle
       style="fill:#7cb342;fill-opacity:1;stroke:none;stroke-width:0;stroke-linecap:round;stroke-miterlimit:4;stroke-dasharray:none;stroke-opacity:1"
       id="circle4167"
       cx="345.29886"
       cy="422.04037"
       r="63.63961"
       inkscape:export-xdpi="181.01932"
       inkscape:export-ydpi="181.01932"
       inkscape:export-filename="C:\Users\Mama1\Documents\KittenProject\KittenProject\Assets\Art\Sprites\NextButton.png" />
    <path
       style="fill:#ffffff;fill-opacity:1"
       d="m 347.8053,456.26521 c -0.78865,-0.78865 -1.30174,-4.61749 -1.30174,-9.71391 l 0,-8.41216 -3.52555,-0.519 c -1.93905,-0.28545 -10.60377,-1.02764 -19.25493,-1.6493 -13.7989,-0.99157 -15.95506,-1.40562 -17.56829,-3.37364 -3.81798,-4.6577 -3.50846,-18.23634 0.48793,-21.40502 0.74304,-0.58914 7.69698,-1.63822 15.45319,-2.33126 7.75621,-0.69306 16.42092,-1.53513 19.25492,-1.87127 l 5.15273,-0.61117 0,-9.14213 c 0,-8.63669 0.14621,-9.20874 2.64448,-10.34703 2.33745,-1.06501 3.43946,-0.63478 9.49186,3.70561 8.12889,5.82953 23.22728,19.72329 28.04866,25.81078 2.55403,3.22473 3.25903,5.00592 2.76321,6.9814 -0.80808,3.21969 -16.41176,19.01362 -27.45274,27.78748 -7.93715,6.30736 -11.64659,7.63776 -14.19373,5.09062 z"
       id="path4165"
       inkscape:connector-curvature="0"
       inkscape:export-filename="C:\Users\Mama1\Documents\KittenProject\KittenProject\Assets\Art\Sprites\NextButton.png"
       inkscape:export-xdpi="181"
       inkscape:export-ydpi="181" />
  </g>
</svg>
